<svg xmlns="http://www.w3.org/2000/svg" viewBox="0 0 1600 1000" preserveAspectRatio="xMidYMid slice">
  <defs>
    <linearGradient id="sky" x1="0" y1="0" x2="0" y2="1">
      <stop offset="0%" stop-color="#2a64c4"/>
      <stop offset="35%" stop-color="#3a86e0"/>
      <stop offset="70%" stop-color="#86c5f2"/>
      <stop offset="100%" stop-color="#cfeafb"/>
    </linearGradient>
    <linearGradient id="hill" x1="0" y1="0" x2="0" y2="1">
      <stop offset="0%" stop-color="#7cb82f"/>
      <stop offset="50%" stop-color="#5a9e1e"/>
      <stop offset="100%" stop-color="#3f7d14"/>
    </linearGradient>
    <radialGradient id="cloud" cx="50%" cy="50%" r="50%">
      <stop offset="0%" stop-color="#ffffff" stop-opacity="0.95"/>
      <stop offset="100%" stop-color="#ffffff" stop-opacity="0"/>
    </radialGradient>
  </defs>
  <rect width="1600" height="1000" fill="url(#sky)"/>
  <ellipse cx="300" cy="220" rx="220" ry="70" fill="url(#cloud)"/>
  <ellipse cx="520" cy="180" rx="160" ry="55" fill="url(#cloud)"/>
  <ellipse cx="1200" cy="160" rx="260" ry="80" fill="url(#cloud)"/>
  <ellipse cx="1380" cy="240" rx="180" ry="55" fill="url(#cloud)"/>
  <ellipse cx="850" cy="120" rx="150" ry="45" fill="url(#cloud)"/>
  <path d="M0,680 C300,560 600,720 900,650 C1150,590 1400,690 1600,640 L1600,1000 L0,1000 Z" fill="url(#hill)"/>
  <path d="M0,720 C350,640 700,780 1100,700 C1300,660 1500,740 1600,710 L1600,1000 L0,1000 Z" fill="#6fae28" opacity="0.6"/>
</svg>
